HIERARCHY
ROOT RootJoint
{
    OFFSET   0.000000   0.000000   0.000000
    CHANNELS 6 Xposition Yposition Zposition Xrotation Yrotation Zrotation
    JOINT pelvis_lowerback
    {
        OFFSET   0.000000   0.093605   0.000000
        CHANNELS 3 Xrotation Yrotation Zrotation
        JOINT lowerback_torso
        {
            OFFSET   0.000000   0.100000   0.000000
            CHANNELS 3 Xrotation Yrotation Zrotation
            JOINT torso_head
            {
                OFFSET   0.000000   0.282350   0.000000
                CHANNELS 3 Xrotation Yrotation Zrotation
                End Site
                {
                    OFFSET   0.000000   0.192650   0.000000
                }
            }
            JOINT rTorso_Clavicle
            {
                OFFSET  -0.001000   0.157500   0.000000
                CHANNELS 3 Xrotation Yrotation Zrotation
                JOINT rShoulder
                {
                    OFFSET  -0.117647   0.000000   0.000000
                    CHANNELS 3 Xrotation Yrotation Zrotation
                    JOINT rElbow
                    {
                        OFFSET  -0.245000   0.000000   0.000000
                        CHANNELS 3 Xrotation Yrotation Zrotation
                        JOINT rWrist
                        {
                            OFFSET  -0.240000   0.000000   0.000000
                            CHANNELS 3 Xrotation Yrotation Zrotation
                            End Site
                            {
                                OFFSET  -0.116353  -0.002500   0.000000
                            }
                        }
                    }
                }
            }
            JOINT lTorso_Clavicle
            {
                OFFSET   0.001000   0.157500   0.000000
                CHANNELS 3 Xrotation Yrotation Zrotation
                JOINT lShoulder
                {
                    OFFSET   0.117647   0.000000   0.000000
                    CHANNELS 3 Xrotation Yrotation Zrotation
                    JOINT lElbow
                    {
                        OFFSET   0.245000   0.000000   0.000000
                        CHANNELS 3 Xrotation Yrotation Zrotation
                        JOINT lWrist
                        {
                            OFFSET   0.240000   0.000000   0.000000
                            CHANNELS 3 Xrotation Yrotation Zrotation
                            End Site
                            {
                                OFFSET   0.116353  -0.002500   0.000000
                            }
                        }
                    }
                }
            }
        }
    }
    JOINT rHip
    {
        OFFSET  -0.100000  -0.051395   0.000000
        CHANNELS 3 Xrotation Yrotation Zrotation
        JOINT rKnee
        {
            OFFSET   0.000000  -0.410000   0.000000
            CHANNELS 3 Xrotation Yrotation Zrotation
            JOINT rAnkle
            {
                OFFSET   0.000000  -0.390000   0.000000
                CHANNELS 3 Xrotation Yrotation Zrotation
                JOINT rToeJoint
                {
                    OFFSET   0.000000  -0.050000   0.130000
                    CHANNELS 3 Xrotation Yrotation Zrotation
                    End Site
                    {
                        OFFSET  -0.010000   0.002000   0.060000
                    }
                }
            }
        }
    }
    JOINT lHip
    {
        OFFSET   0.100000  -0.051395   0.000000
        CHANNELS 3 Xrotation Yrotation Zrotation
        JOINT lKnee
        {
            OFFSET   0.000000  -0.410000   0.000000
            CHANNELS 3 Xrotation Yrotation Zrotation
            JOINT lAnkle
            {
                OFFSET   0.000000  -0.390000   0.000000
                CHANNELS 3 Xrotation Yrotation Zrotation
                JOINT lToeJoint
                {
                    OFFSET   0.000000  -0.050000   0.130000
                    CHANNELS 3 Xrotation Yrotation Zrotation
                    End Site
                    {
                        OFFSET   0.010000   0.002000   0.060000
                    }
                }
            }
        }
    }
}
MOTION
Frames: 8
Frame Time:   0.008333
 -1.955654   0.881119   5.237051   5.020922   5.496759   3.729710  14.246278  -9.424223   5.172138   6.371554  -7.190685   6.876767   4.051976  12.774858  -9.452752   0.725666  -8.394400  -0.619922   9.916682   0.313634  35.801560  -0.009147  62.413042   0.014406   3.039788   0.911061   3.379283  -2.432116  -7.396105  15.509044  -1.831163  -0.111912 -11.154293   0.007313 -28.782336  -0.032425   1.803522  -1.627332  -4.043508 -31.110453   3.115122  -2.334971  39.967280  -0.002552  -0.018362 -10.299138   8.453966  -1.306578  -5.468440   0.000310  -0.002770   6.054463  14.515336  -4.192725  37.498244   0.044121   0.082149  -3.144457   7.301277 -10.862267   2.448744  -0.007420  -0.014031
 -1.952086   0.878498   5.235752   5.010514   4.637470   3.411711  14.127714  -9.474122   5.233086   6.618490  -7.149062   7.211519   4.086443  13.194192  -9.736610   0.526998  -8.405780  -0.379785   8.817577   0.506312  35.857186  -0.008556  62.488586   0.013595   3.079020   0.481423   3.043755  -2.381562  -7.651320  15.570909  -1.148326  -0.149200 -11.736460   0.006401 -28.922141  -0.025138   1.936699  -1.466499  -3.718794 -31.523052   3.064090  -2.010045  40.551867  -0.002686  -0.018507 -10.735195   8.648175  -1.225688  -5.017654   0.000457  -0.004443   6.173475  14.246827  -4.408687  37.878180   0.034546   0.061616  -3.857530   7.469048 -10.742968   0.459068   0.001429   0.006399
 -1.948764   0.876405   5.234449   5.053187   3.907640   3.112763  13.981877  -9.526028   5.277348   6.834817  -7.105905   7.544639   4.115737  13.592883  -9.996820   0.320076  -8.356552  -0.025445   7.768263   0.752221  36.002082  -0.008072  62.585166   0.013221   3.096639   0.146936   2.737920  -2.310601  -7.950533  15.501873  -0.504319  -0.249888 -12.386965   0.006143 -29.091325  -0.019104   2.044215  -1.547973  -3.530585 -31.915217   3.013883  -1.726053  40.981761  -0.002522  -0.017197 -11.025414   8.813159  -1.208382  -4.682903   0.000664  -0.004942   6.320935  13.936240  -4.645793  37.980739   0.027417   0.048287  -4.496252   7.655096 -10.619261  -1.318617   0.005786   0.020057
 -1.945690   0.874610   5.233083   5.122337   3.318940   2.830728  13.845376  -9.580387   5.312221   7.030981  -7.068128   7.862651   4.134892  13.966551 -10.234539   0.121624  -8.267332   0.380482   6.782271   1.020956  36.194228  -0.007509  62.690576   0.012799   3.102561  -0.080079   2.541198  -2.229890  -8.275936  15.371154   0.098480  -0.388176 -13.046864   0.006183 -29.264492  -0.014201   2.138242  -1.741473  -3.470272 -32.290952   2.966035  -1.484112  41.322619  -0.002194  -0.015296 -11.244890   8.957209  -1.217486  -4.400221   0.000851  -0.004861   6.438323  13.631729  -4.855082  37.980057   0.021911   0.038649  -5.090201   7.824009 -10.503905  -2.942455   0.007081   0.028297
 -1.942830   0.873005   5.231662   5.201072   2.846274   2.566169  13.731339  -9.625265   5.337681   7.219511  -7.029036   8.156902   4.149382  14.316049 -10.455451  -0.067303  -8.154116   0.800990   5.857193   1.294402  36.406824  -0.006867  62.798000   0.012188   3.102375  -0.237224   2.427818  -2.146972  -8.609555  15.210706   0.660622  -0.547462 -13.691510   0.006341 -29.435232  -0.010249   2.223698  -1.989700  -3.486957 -32.655652   2.909967  -1.280027  41.621184  -0.001835  -0.013352 -11.412110   9.071762  -1.237663  -4.174905   0.000952  -0.004487   6.527617  13.343652  -5.035561  37.929941   0.017570   0.031305  -5.645258   7.977522 -10.395919  -4.468367   0.006686   0.032782
 -1.940165   0.871531   5.230205   5.283623   2.481132   2.316700  13.641007  -9.659171   5.355616   7.405075  -6.986798   8.425484   4.162704  14.642473 -10.662019  -0.247027  -8.028528   1.214635   4.989556   1.561769  36.623876  -0.006183  62.903644   0.011388   3.099132  -0.352046   2.364469  -2.065945  -8.939659  15.037241   1.184060  -0.716842 -14.309564   0.006515 -29.600298  -0.007094   2.302862  -2.264717  -3.547428 -33.006257   2.856305  -1.109786  41.888734  -0.001462  -0.011472 -11.554472   9.171332  -1.263228  -3.976635   0.001018  -0.003976   6.590861  13.071838  -5.185849  37.853420   0.014104   0.025544  -6.166173   8.118619 -10.293711  -5.938690   0.005375   0.034639
 -1.937685   0.870158   5.228728   5.368423   2.217206   2.079741  13.572832  -9.681598   5.366955   7.588521  -6.940592   8.668427   4.176342  14.947125 -10.855512  -0.418076  -7.898037   1.609695   4.175865   1.817228  36.836186  -0.005488  63.005477   0.010441   3.094448  -0.441372   2.327197  -1.988973  -9.258887  14.860140   1.671239  -0.888966 -14.895851   0.006652 -29.757788  -0.004606   2.376981  -2.550045  -3.632179 -33.342505   2.808610  -0.970017  42.131865  -0.001090  -0.009708 -11.685051   9.260729  -1.289890  -3.792225   0.001066  -0.003406   6.630407  12.815621  -5.305361  37.760364   0.011315   0.020946  -6.656561   8.249719 -10.196102  -7.378478   0.003602   0.034604
 -1.935401   0.868973   5.227730   5.296954   1.907179   1.869499  13.429533  -9.549427   5.335024   7.953861  -6.773369   8.921850   4.155749  15.339951 -11.043070  -0.519805  -7.800310   2.089995   3.287790   2.279537  37.398247  -0.003486  63.313224   0.010780   3.018532  -0.964083   1.727269  -1.893073  -9.493588  14.573574   2.264152  -1.364544 -16.103296   0.018227 -30.532975   0.003413   2.384091  -2.397318  -2.851958 -33.459736   2.769896  -0.802467  42.349903  -0.000874  -0.008259 -11.831231   9.202793  -1.317156  -3.636141   0.001025  -0.003141   6.847436  12.760774  -5.402168  37.665139   0.009044   0.017140  -7.110528   8.349320  -9.996947  -8.232394   0.002993   0.030762
